<?xml version="1.0" encoding="utf-8" standalone="no"?>
<!DOCTYPE svg PUBLIC "-//W3C//DTD SVG 1.1//EN"
  "http://www.w3.org/Graphics/SVG/1.1/DTD/svg11.dtd">
<!-- Created with matplotlib (http://matplotlib.org/) -->
<svg height="344pt" version="1.1" viewBox="0 0 460 344" width="460pt" xmlns="http://www.w3.org/2000/svg" xmlns:xlink="http://www.w3.org/1999/xlink">
 <defs>
  <style type="text/css">
*{stroke-linecap:butt;stroke-linejoin:round;}
  </style>
 </defs>
 <g id="figure_1">
  <g id="patch_1">
   <path d="M 0 344.16 
L 460.8 344.16 
L 460.8 0 
L 0 0 
z
" style="fill:#ffffff;"/>
  </g>
  <g id="axes_1">
   <g id="patch_2">
    <path d="M 57.6 306.3024 
L 414.72 306.3024 
L 414.72 41.2992 
L 57.6 41.2992 
z
" style="fill:#ffffff;"/>
   </g>
   <g id="PathCollection_1">
    <defs>
     <path d="M 0 3 
C 0.795609 3 1.55874 2.683901 2.12132 2.12132 
C 2.683901 1.55874 3 0.795609 3 0 
C 3 -0.795609 2.683901 -1.55874 2.12132 -2.12132 
C 1.55874 -2.683901 0.795609 -3 0 -3 
C -0.795609 -3 -1.55874 -2.683901 -2.12132 -2.12132 
C -2.683901 -1.55874 -3 -0.795609 -3 0 
C -3 0.795609 -2.683901 1.55874 -2.12132 2.12132 
C -1.55874 2.683901 -0.795609 3 0 3 
z
" id="med85cea724" style="stroke:#000000;"/>
    </defs>
    <g clip-path="url(#p7a94e8b68c)">
     <use style="stroke:#000000;" x="367.243837" xlink:href="#med85cea724" y="124.150258"/>
     <use style="stroke:#000000;" x="149.104322" xlink:href="#med85cea724" y="254.712794"/>
     <use style="stroke:#000000;" x="243.16448" xlink:href="#med85cea724" y="236.323705"/>
     <use style="stroke:#000000;" x="147.103042" xlink:href="#med85cea724" y="198.626071"/>
     <use style="stroke:#000000;" x="159.110722" xlink:href="#med85cea724" y="228.048614"/>
     <use style="stroke:#000000;" x="233.15808" xlink:href="#med85cea724" y="276.779702"/>
     <use style="stroke:#000000;" x="387.256636" xlink:href="#med85cea724" y="53.352263"/>
     <use style="stroke:#000000;" x="161.112002" xlink:href="#med85cea724" y="251.954431"/>
     <use style="stroke:#000000;" x="117.083843" xlink:href="#med85cea724" y="170.122982"/>
     <use style="stroke:#000000;" x="165.114562" xlink:href="#med85cea724" y="277.699156"/>
     <use style="stroke:#000000;" x="325.216958" xlink:href="#med85cea724" y="179.317527"/>
     <use style="stroke:#000000;" x="111.080003" xlink:href="#med85cea724" y="272.182429"/>
     <use style="stroke:#000000;" x="225.15296" xlink:href="#med85cea724" y="293.329882"/>
     <use style="stroke:#000000;" x="179.123521" xlink:href="#med85cea724" y="279.538065"/>
     <use style="stroke:#000000;" x="85.063364" xlink:href="#med85cea724" y="294.249337"/>
     <use style="stroke:#000000;" x="259.174719" xlink:href="#med85cea724" y="174.720254"/>
     <use style="stroke:#000000;" x="193.132481" xlink:href="#med85cea724" y="242.759886"/>
     <use style="stroke:#000000;" x="193.132481" xlink:href="#med85cea724" y="217.015161"/>
     <use style="stroke:#000000;" x="295.197758" xlink:href="#med85cea724" y="136.103166"/>
     <use style="stroke:#000000;" x="87.064644" xlink:href="#med85cea724" y="285.974247"/>
    </g>
   </g>
   <g id="matplotlib.axis_1"/>
   <g id="matplotlib.axis_2"/>
   <g id="line2d_1">
    <path clip-path="url(#p7a94e8b68c)" d="M 367.243837 130.611044 
L 149.104322 231.958472 
L 243.16448 188.258205 
L 147.103042 232.888264 
L 159.110722 227.309507 
L 233.15808 192.907169 
L 387.256636 121.313115 
L 161.112002 226.379714 
L 117.083843 246.835158 
L 165.114562 224.520128 
L 325.216958 150.136695 
L 111.080003 249.624537 
L 225.15296 196.626341 
L 179.123521 218.011578 
L 85.063364 261.711845 
L 259.174719 180.819861 
L 193.132481 211.503027 
L 193.132481 211.503027 
L 295.197758 164.083589 
L 87.064644 260.782052 
" style="fill:none;stroke:#0000ff;stroke-linecap:square;stroke-width:3;"/>
   </g>
   <g id="patch_3">
    <path d="M 57.6 306.3024 
L 57.6 41.2992 
" style="fill:none;stroke:#000000;stroke-linecap:square;stroke-linejoin:miter;stroke-width:0.8;"/>
   </g>
   <g id="patch_4">
    <path d="M 414.72 306.3024 
L 414.72 41.2992 
" style="fill:none;stroke:#000000;stroke-linecap:square;stroke-linejoin:miter;stroke-width:0.8;"/>
   </g>
   <g id="patch_5">
    <path d="M 57.6 306.3024 
L 414.72 306.3024 
" style="fill:none;stroke:#000000;stroke-linecap:square;stroke-linejoin:miter;stroke-width:0.8;"/>
   </g>
   <g id="patch_6">
    <path d="M 57.6 41.2992 
L 414.72 41.2992 
" style="fill:none;stroke:#000000;stroke-linecap:square;stroke-linejoin:miter;stroke-width:0.8;"/>
   </g>
  </g>
 </g>
 <defs>
  <clipPath id="p7a94e8b68c">
   <rect height="265.0032" width="357.12" x="57.6" y="41.2992"/>
  </clipPath>
 </defs>
</svg>
