<svg xmlns="http://www.w3.org/2000/svg" width="485.2" height="485.2">
  <rect width="100%" height="100%" fill="none"/>
  <g class="currentLayer">
    <path fill="#abecab" d="M303.3 91c50.2 0 91 40.7 91 91 0 12-2.5 23.3-6.7 33.8 38.7 10.5 67.3 45.5 67.3 87.5 0 50.2-41 91-91 91H106c-41.7 0-75.7-34-75.7-76 0-41.8 34-75.7 75.8-75.7 3 0 5 .5 7 .7-4-9.5-7-20-7-31 0-42 34-75.8 76-75.8 14 0 27 4 38 10.2C234 114 266 91 304 91m0-30.3c-39 0-74.7 18.3-97 48.3-8-2-16.3-3-24.5-3-58.5 0-106 47.8-106 106.3v4.4C32 229.7 0 270.4 0 318.4 0 377 47.6 424.6 106 424.6h258c66.8 0 121.2-54.4 121.2-121.3 0-44.3-24.3-84.2-61.7-105.4.7-6 1-11 1-16 0-67-54.3-122-121.2-122z" class="selected"/>
    <path stroke="#222" stroke-width="2" d="M228.4 131l3.7 49.3c-12 1.7-24 5.7-34 11.7l-41-34c-3-3-9-2.8-12 .6-3 3.3-2 8.4 1 11.4l39 32.6c-4 4-8 8.6-11 13.5-13 1-23 9-27 20h-6l-4-1-2-1c-2-1.7-3-3.5-3-5.5 2.8 0 4.7-.5 6-2 1-1 1.4-2.4 1.5-4 0-2-.7-3.4-2.2-4.7-1.3-1-3-1.6-5-1.5-2 0-3.5 1-5 2.5-1 1-1.5 2.5-2 3.8v4c.4 1.3 1 2.6 2 4 1 1 2 2.3 3 3 2 1.7 4 3 6.3 3.6 2 .8 4.5 1.3 7 1.6 1.2.3 2.5 0 4 0-1 3-1.5 6-1 9.4 0 4 1.2 8 3 11.4-1 0-3 0-4.2.3-2 .3-4.4 1-6.7 2s-4 2.3-5.7 4c-1 1-2 2.2-2.6 3.5 0 1-1 2.3-1 4s.6 2.4 1 4c.5 1 1.4 2 2.4 3 2 1.4 4 2 5.8 2 2 0 3.5-1 4.7-2 1.7-1.5 2-3 2-5-.5-1.5-1-3-2-4-2-1.2-4-1.5-6-1 0-2 1-4 2.3-6l2.3-1.5c1-.7 2-1.2 3.3-1.6l5.8-1h1c5.6 9 15.4 15 26.6 15 4 5.8 8.7 11 14.6 15.4l-34 35c-3 3.7-3 9 1 12 3.3 3 9 2.7 12-.6l35-37.6c10.7 5 23 8 36 8.8l3.3 49c.5 4.5 4.6 8 9.3 7.7 4.4-.6 8-4 8-9l-4-50c9.4-2 21.2-7 33-12.6l42 35.5c3.2 3 9 2.5 12-.8 1.3-1 2-3.2 2-5.3 0-2-1-4-3-5.7l-39-32c29-41 27.2-52-7-87l33.3-36c1.7-1.7 2.4-4 2.3-6-.2-2-1.2-4.3-3-6-3.6-3-9-3-12 .6l-37 39.4c-12.2-5-24.4-9-34.3-10l-3.4-50c-.2-4-4.3-8-9-7.4-4.8.4-8.4 4-8 8.7z" stroke-linejoin="round" class="selected" color="#000"/>
    <path fill="#f7a400" stroke="#222" stroke-width="2" d="M83.3 242.6c0-88 71.3-159.3 159.3-159.3 42.2 0 82.8 16.8 112.6 46.7 30 29.8 46.7 70.4 46.7 112.6 0 88-72 159.4-160 159.4S83 330 83 242zM340.5 314c35-48.3 30-115-12.3-157-42-42.2-108.7-47.4-156.8-12.3l169 169.2zM144.7 171.3c-35 48-30 114.7 12.3 156.8 42 43 108.7 48 157 13L144.7 172z" stroke-linejoin="round" class="selected" color="#000"/>
  </g>
</svg>
